#!OML:ASF X:\für Bonn\!DataBase\2005_08_10_Bjorn_Final\c3d\bjorn.ASF
:FULLY-SPECIFIED
:DEGREES
106
root 1.40945 19.5018 3.29342 -208.035 -46.0005 -155.41
lowerback 36.4293 0.725423 -4.63908
upperback 21.138 -5.92886 -1.74328
thorax 5.35099 -5.53104 1.94181
lowerneck -5.44124 -7.13211 -2.46808
upperneck 1.11236 -12.393 27.4496
head 3.3083 -6.41639 8.20863
rclavicle 4.77083e-014 9.85972e-014
rhumerus -45.0802 -5.1631 -85.6564
rradius 26.0991
rwrist 23.3102
rhand -14.2146 15.0165
rfingers 7.12502
rthumb 11.9222 -14.624
lclavicle 4.77083e-014 9.85972e-014
lhumerus 64.4564 -33.0528 80.8763
lradius 109.068
lwrist 2.90134
lhand -41.9129 -21.1217
lfingers 7.12502
lthumb -14.8112 8.32902
rfemur -95.5149 -6.68213 20.137
rtibia 125.218
rfoot -11.4156 23.6054
rtoes -30.0252
lfemur -4.93445 -18.5959 -3.37562
ltibia 23.2286
lfoot 1.78061 -22.0655
ltoes 14.2857
107
root 1.39914 19.4961 3.30044 -207.793 -45.8349 -155.665
lowerback 36.3828 0.735041 -4.70001
upperback 21.1151 -5.93431 -1.76937
thorax 5.3425 -5.53706 1.94657
lowerneck -5.42836 -7.13086 -2.72338
upperneck 1.08411 -12.384 27.6047
head 3.32524 -6.41664 8.30592
rclavicle -4.77083e-014 -7.31528e-014
rhumerus -44.8982 -5.09991 -85.7097
rradius 26.1387
rwrist 23.1958
rhand -14.4808 15.0652
rfingers 7.12502
rthumb 11.6655 -14.5901
lclavicle -4.77083e-014 -7.31528e-014
lhumerus 64.1629 -32.9674 81.289
lradius 109.029
lwrist 2.86371
lhand -41.8489 -20.9617
lfingers 7.12502
lthumb -14.7496 8.49348
rfemur -95.4436 -6.52463 20.2247
rtibia 125.143
rfoot -11.3467 23.5646
rtoes -30.235
lfemur -5.01827 -18.4228 -3.5136
ltibia 23.4493
lfoot 1.62718 -22.0404
ltoes 14.2011
108
root 1.38836 19.4873 3.30665 -207.554 -45.6778 -155.889
lowerback 36.2941 0.723762 -4.7124
upperback 21.0708 -5.93491 -1.80263
thorax 5.31841 -5.52898 1.91839
lowerneck -5.33836 -7.14231 -2.95227
upperneck 1.05909 -12.3902 27.7524
head 3.32923 -6.42898 8.39873
rclavicle -9.54166e-015 6.99722e-014
rhumerus -44.7388 -5.1084 -85.762
rradius 26.1457
rwrist 23.0786
rhand -14.6337 15.1498
rfingers 7.12502
rthumb 11.518 -14.5137
lclavicle -9.54166e-015 6.99722e-014
lhumerus 63.7853 -32.8988 81.6905
lradius 108.985
lwrist 2.83361
lhand -41.7127 -20.7496
lfingers 7.12502
lthumb -14.6184 8.71514
rfemur -95.3739 -6.45432 20.3549
rtibia 125.086
rfoot -11.2864 23.5281
rtoes -30.3558
lfemur -5.11007 -18.2704 -3.62186
ltibia 23.634
lfoot 1.49749 -22.0035
ltoes 14.1565
109
root 1.37608 19.4826 3.31327 -207.299 -45.5085 -156.116
lowerback 36.1209 0.711394 -4.73211
upperback 21.0428 -5.9317 -1.82813
thorax 5.34182 -5.52116 1.89457
lowerneck -5.21296 -7.12394 -3.19808
upperneck 1.0419 -12.3601 27.9274
head 3.32634 -6.42637 8.50927
rclavicle -1.46306e-013 -6.04305e-014
rhumerus -44.5791 -5.06408 -85.8386
rradius 26.1699
rwrist 22.9756
rhand -14.7554 15.2243
rfingers 7.12502
rthumb 11.4006 -14.4458
lclavicle -1.46306e-013 -6.04305e-014
lhumerus 63.3945 -32.7857 82.139
lradius 108.905
lwrist 2.7878
lhand -41.3763 -20.5332
lfingers 7.12502
lthumb -14.2942 8.95479
rfemur -95.2398 -6.34993 20.4625
rtibia 124.996
rfoot -11.2086 23.4243
rtoes -30.2535
lfemur -5.17508 -18.0812 -3.73279
ltibia 23.7607
lfoot 1.38246 -21.9626
ltoes 14.0771
110
root 1.36294 19.4859 3.3189 -207.004 -45.3599 -156.384
lowerback 35.8671 0.703513 -4.79591
upperback 21.0317 -5.92861 -1.84966
thorax 5.41566 -5.51884 1.89088
lowerneck -5.06477 -7.10084 -3.42598
upperneck 0.996246 -12.3135 28.081
head 3.30522 -6.41966 8.61271
rclavicle -1.04958e-013 -3.18055e-015
rhumerus -44.3729 -4.96966 -85.9261
rradius 26.1486
rwrist 22.8964
rhand -14.8346 15.3368
rfingers 7.12502
rthumb 11.3243 -14.3374
lclavicle -1.04958e-013 -3.18055e-015
lhumerus 62.9599 -32.6569 82.5524
lradius 108.843
lwrist 2.73547
lhand -40.9749 -20.329
lfingers 7.12502
lthumb -13.9074 9.18596
rfemur -95.0166 -6.20247 20.5206
rtibia 124.872
rfoot -11.2769 23.1678
rtoes -30.4557
lfemur -5.2177 -17.8987 -3.87519
ltibia 23.8306
lfoot 1.31455 -21.9287
ltoes 14.0778
111
root 1.34727 19.4878 3.32421 -206.709 -45.1879 -156.65
lowerback 35.564 0.684486 -4.82269
upperback 21.0195 -5.92061 -1.88435
thorax 5.50065 -5.50774 1.85085
lowerneck -4.86824 -7.0729 -3.64133
upperneck 0.946819 -12.2615 28.2437
head 3.27292 -6.41468 8.72032
rclavicle 5.08889e-014 -3.49861e-014
rhumerus -44.192 -4.86893 -86.0509
rradius 26.1395
rwrist 22.8284
rhand -14.8271 15.4161
rfingers 7.12502
rthumb 11.3315 -14.2578
lclavicle 5.08889e-014 -3.49861e-014
lhumerus 62.4964 -32.5077 82.926
lradius 108.768
lwrist 2.69497
lhand -40.4906 -20.0882
lfingers 7.12502
lthumb -13.4407 9.45814
rfemur -94.7564 -6.0935 20.6021
rtibia 124.753
rfoot -11.3053 22.8657
rtoes -30.5991
lfemur -5.20381 -17.7083 -4.02391
ltibia 23.8179
lfoot 1.25636 -21.8794
ltoes 14.0047
112
root 1.33017 19.4902 3.32884 -206.425 -45.0425 -156.902
lowerback 35.2358 0.638333 -4.82342
upperback 20.9996 -5.93003 -1.93023
thorax 5.58413 -5.49883 1.78976
lowerneck -4.66329 -7.03049 -3.79948
upperneck 0.93077 -12.2013 28.3807
head 3.24134 -6.40391 8.81063
rclavicle -4.77083e-014 -7.95139e-014
rhumerus -44.0257 -4.72589 -86.2133
rradius 26.1268
rwrist 22.6992
rhand -14.7988 15.5418
rfingers 7.12502
rthumb 11.3588 -14.1306
lclavicle -4.77083e-014 -7.95139e-014
lhumerus 61.9822 -32.3608 83.2828
lradius 108.706
lwrist 2.67392
lhand -39.9657 -19.9238
lfingers 7.12502
lthumb -12.9347 9.6553
rfemur -94.4515 -6.0577 20.7013
rtibia 124.622
rfoot -11.3937 22.5234
rtoes -30.8666
lfemur -5.17381 -17.5295 -4.16966
ltibia 23.7453
lfoot 1.24664 -21.8243
ltoes 13.9611
113
root 1.31072 19.4956 3.33114 -206.133 -44.8747 -157.149
lowerback 34.8442 0.602503 -4.8214
upperback 20.9904 -5.92045 -1.96775
thorax 5.70216 -5.48136 1.72624
lowerneck -4.50887 -7.00399 -3.89576
upperneck 0.934827 -12.1718 28.4811
head 3.2231 -6.40263 8.87227
rclavicle -9.22361e-014 1.24042e-013
rhumerus -43.8671 -4.54826 -86.3989
rradius 26.1046
rwrist 22.6254
rhand -14.7975 15.7173
rfingers 7.12502
rthumb 11.3601 -13.9551
lclavicle -9.22361e-014 1.24042e-013
lhumerus 61.5015 -32.2209 83.5534
lradius 108.616
lwrist 2.68817
lhand -39.442 -19.7984
lfingers 7.12502
lthumb -12.4299 9.81205
rfemur -94.0997 -6.01749 20.8149
rtibia 124.493
rfoot -11.4288 22.1602
rtoes -31.025
lfemur -5.11982 -17.3488 -4.30766
ltibia 23.6455
lfoot 1.27572 -21.7294
ltoes 14.0687
114
root 1.28926 19.5012 3.33226 -205.833 -44.6936 -157.409
lowerback 34.4311 0.565059 -4.8632
upperback 20.9698 -5.91959 -1.98532
thorax 5.82277 -5.47271 1.7077
lowerneck -4.50112 -6.9695 -3.95369
upperneck 1.06241 -12.159 28.4966
head 3.26101 -6.38564 8.88902
rclavicle 3.49861e-014 -7.63333e-014
rhumerus -43.6888 -4.25076 -86.5967
rradius 26.0657
rwrist 22.4456
rhand -14.7546 15.8309
rfingers 7.12502
rthumb 11.4014 -13.8392
lclavicle 3.49861e-014 -7.63333e-014
lhumerus 61.0068 -32.0368 83.8018
lradius 108.497
lwrist 2.66296
lhand -38.9614 -19.6209
lfingers 7.12502
lthumb -11.9665 10.017
rfemur -93.6906 -5.98622 20.9471
rtibia 124.352
rfoot -11.4744 21.7555
rtoes -31.2124
lfemur -5.03068 -17.1341 -4.45569
ltibia 23.507
lfoot 1.22308 -21.6759
ltoes 13.8405
115
root 1.26661 19.5086 3.33119 -205.53 -44.5232 -157.682
lowerback 33.993 0.52615 -4.88103
upperback 20.9478 -5.90847 -2.02881
thorax 5.94708 -5.45283 1.64602
lowerneck -4.51924 -6.94899 -3.84564
upperneck 1.19785 -12.1753 28.4386
head 3.29464 -6.38104 8.84729
rclavicle -2.8625e-014 9.22361e-014
rhumerus -43.5464 -4.01354 -86.8282
rradius 26.0445
rwrist 22.31
rhand -14.6745 15.9254
rfingers 7.12502
rthumb 11.4787 -13.7404
lclavicle -2.8625e-014 9.22361e-014
lhumerus 60.503 -31.9141 83.9826
lradius 108.358
lwrist 2.66305
lhand -38.4745 -19.5507
lfingers 7.12502
lthumb -11.4969 10.114
rfemur -93.2212 -5.98175 21.0714
rtibia 124.21
rfoot -11.4624 21.3938
rtoes -31.1981
lfemur -4.90888 -16.9481 -4.61912
ltibia 23.3333
lfoot 1.25188 -21.5782
ltoes 13.9453
